<svg width="1193" height="1295" viewBox="0 0 1193 1295" fill="none" xmlns="http://www.w3.org/2000/svg">
<g opacity="0.4">
<mask id="mask0_4102_161" style="mask-type:alpha" maskUnits="userSpaceOnUse" x="-334" y="270" width="1527" height="1025">
<path d="M990.248 549.773C992.316 659.004 1173.17 894.28 1192.82 1020.28L839.22 1294.56C597.123 956.827 990.248 1247 460.913 773.628C318.689 646.44 -35.6856 716.596 -334 827.649L-77.036 476.386C116.819 371.853 420.557 277.413 476.321 270.317C546.026 261.448 988.181 440.542 990.248 549.773Z" fill="#C4C4C4"/>
</mask>
<g mask="url(#mask0_4102_161)">
<g opacity="0.4" filter="url(#filter0_f_4102_161)">
<ellipse cx="534.801" cy="347.7" rx="534.801" ry="347.7" transform="matrix(0.879918 0.585189 -0.664215 0.676052 -128.986 -79.3457)" fill="#00D1FF"/>
</g>
<mask id="mask1_4102_161" style="mask-type:alpha" maskUnits="userSpaceOnUse" x="-1009" y="-346" width="2435" height="1793">
<path d="M1425.25 692.866L936.209 1446.1L-1008.89 529.608L-478.697 -345.4L1425.25 692.866Z" fill="url(#paint0_linear_4102_161)"/>
</mask>
<g mask="url(#mask1_4102_161)">
<mask id="mask2_4102_161" style="mask-type:alpha" maskUnits="userSpaceOnUse" x="-811" y="-196" width="2027" height="1421">
<path d="M-810.842 386.83C-612.356 136.637 -359.069 -182.482 -350.865 -195.84L1215.87 641.368L755.892 1224.04L-810.842 386.83Z" fill="url(#paint1_linear_4102_161)"/>
</mask>
<g mask="url(#mask2_4102_161)">
<path d="M297.91 296.26C474.617 390.686 552.347 559.813 488.838 640.263C425.328 720.713 270.452 788.065 80.8604 686.754C-13.0914 636.549 -169.621 629.37 -249.617 529.661C-331.051 428.16 -218.594 332.242 -186.557 291.659C-123.047 211.209 121.203 201.834 297.91 296.26Z" fill="#00D1FF"/>
<g filter="url(#filter1_f_4102_161)">
<path d="M290.353 302.014C479.867 403.284 554.606 552.894 500.015 622.046C445.424 691.198 302.282 743.74 112.767 642.47C18.854 592.286 -133.087 579.378 -217.479 485.319C-303.387 389.57 -203.105 309.056 -175.567 274.172C-120.976 205.02 100.839 200.744 290.353 302.014Z" fill="#00D1FF"/>
</g>
<g filter="url(#filter2_f_4102_161)">
<path d="M296.091 305.084C508.5 418.587 585.443 594.916 518.14 680.172C450.836 765.428 282.372 834.487 69.9637 720.983C-35.295 664.737 -216.11 663.594 -307.65 554.313C-400.835 443.068 -274.402 335.046 -240.45 292.038C-173.147 206.782 83.683 191.58 296.091 305.084Z" fill="#00D1FF"/>
</g>
<g filter="url(#filter3_f_4102_161)">
<path d="M312.635 328.283C558.373 489.332 958.787 1251.68 609.537 815.769C260.288 379.862 255.703 689.857 0.961509 553.732C-125.275 486.275 -316.601 770.745 -427.356 640.912C-540.099 508.747 -397.951 391.208 -358.215 340.873C-279.445 241.092 27.9601 141.717 312.635 328.283Z" fill="#7785FF"/>
</g>
<g filter="url(#filter4_f_4102_161)">
<path d="M369.111 415.878C643.401 562.449 991.589 1234.57 701.033 914.746C410.477 594.919 397.444 1041.18 123.153 894.611C-12.7707 821.978 -207.199 771.019 -330.337 636.144C-455.687 498.845 -313.27 385.764 -274.42 336.552C-197.406 238.995 94.8207 269.307 369.111 415.878Z" fill="#7785FF"/>
</g>
<g filter="url(#filter5_f_4102_161)">
<path d="M445.127 511.866C728.58 663.333 868.801 925.221 790.031 1025C286.426 277.677 477.999 1153.51 194.546 1002.04C54.0805 926.981 -146.532 873.925 -274.19 735.059C-404.142 593.698 -258.081 478.251 -218.345 427.916C-139.575 328.135 161.673 360.398 445.127 511.866Z" fill="#7785FF"/>
</g>
<g filter="url(#filter6_f_4102_161)">
<path d="M244.46 299.636C492.482 432.17 761.073 867.327 626.093 808.155C491.114 748.984 233.774 747.136 -14.2483 614.602C-137.155 548.925 -311.202 664.525 -418 536.806C-526.717 406.793 -385.484 288.765 -345.748 238.43C-266.978 138.649 -3.5617 167.101 244.46 299.636Z" fill="url(#paint2_linear_4102_161)"/>
</g>
</g>
</g>
<mask id="mask3_4102_161" style="mask-type:alpha" maskUnits="userSpaceOnUse" x="314" y="306" width="871" height="737">
<path d="M922.745 1042.51L1184.93 478.677L537.531 306.473C462.111 418.667 311.901 643.863 314.419 647.094C316.937 650.326 721.019 912.054 922.745 1042.51Z" fill="url(#paint3_linear_4102_161)"/>
</mask>
<g mask="url(#mask3_4102_161)">
<mask id="mask4_4102_161" style="mask-type:alpha" maskUnits="userSpaceOnUse" x="291" y="353" width="830" height="597">
<path d="M1120.58 585.102C1035.47 741.796 926.87 941.674 923.309 949.726L291.863 718.479L489.132 353.855L1120.58 585.102Z" fill="url(#paint4_linear_4102_161)"/>
</mask>
<g mask="url(#mask4_4102_161)">
<path d="M677.382 787.122C627.801 768.964 616.495 697.543 643.732 647.199C670.97 596.855 726.784 538.137 779.981 557.619C806.342 567.273 856.557 545.341 874.313 581.881C892.388 619.078 847.99 685.086 834.251 710.482C807.013 760.826 726.963 805.279 677.382 787.122Z" fill="#00A3FF"/>
<g filter="url(#filter7_f_4102_161)">
<path d="M677.989 786.329C621.017 765.464 613.967 688.2 644.201 632.317C674.435 576.434 735.606 510.97 792.578 531.834C820.811 542.173 876.087 515.918 894.574 556.03C913.392 596.863 864.393 670.237 849.142 698.427C818.908 754.309 734.961 807.193 677.989 786.329Z" fill="#00A3FF"/>
</g>
<g filter="url(#filter8_f_4102_161)">
<path d="M680.728 777.207C643.492 790.025 596.959 675.647 625.654 622.609C654.349 569.57 717.466 509.29 784.947 534.003C818.388 546.25 881.592 519.344 907.032 560.306C932.93 602.004 882.17 675.46 867.695 702.216C839 755.254 704.204 817.782 680.728 777.207Z" fill="#00A3FF"/>
</g>
<g filter="url(#filter9_f_4102_161)">
<path d="M685.652 753.823C618.79 714.453 593.376 626.449 625.443 567.178C657.509 507.907 729.522 457.509 800.999 483.685C836.419 496.657 916.902 448.733 943.015 493.66C969.598 539.394 916.122 616.665 899.946 646.564C867.879 705.835 763.108 799.431 685.652 753.823Z" fill="#00A3FF"/>
</g>
<g filter="url(#filter10_f_4102_161)">
<path d="M646.989 738.146C610.897 694.387 540.255 577.611 573.284 516.561C606.313 455.512 820.569 486.69 897.531 514.875C935.669 528.842 994.581 522.502 1023.44 569.497C1052.83 617.336 959.786 674.606 883.577 726.202C782.378 794.717 671.425 804.566 646.989 738.146Z" fill="#00A3FF"/>
</g>
<g filter="url(#filter11_f_4102_161)">
<path d="M705.632 740.083C626.099 710.956 542.546 526.725 576.328 464.284C610.11 401.843 774.48 430.084 854.013 459.211C893.425 473.644 1026.03 462.412 1056.03 510.654C1086.57 559.764 1034.2 597.784 1017.16 629.283C983.376 691.724 785.165 769.209 705.632 740.083Z" fill="#00A3FF"/>
</g>
<g filter="url(#filter12_f_4102_161)">
<path d="M705.632 740.083C626.099 710.956 542.546 526.725 576.328 464.284C610.11 401.843 774.48 430.084 854.013 459.211C893.425 473.644 1026.03 462.412 1056.03 510.654C1086.57 559.764 1034.2 597.784 1017.16 629.283C983.376 691.724 785.165 769.209 705.632 740.083Z" fill="#00A3FF"/>
</g>
<g filter="url(#filter13_f_4102_161)">
<path d="M705.632 740.083C626.099 710.956 542.546 526.725 576.328 464.284C610.11 401.843 774.48 430.084 854.013 459.211C893.425 473.644 1026.03 462.412 1056.03 510.654C1086.57 559.764 1034.2 597.784 1017.16 629.283C983.376 691.724 785.165 769.209 705.632 740.083Z" fill="#00A3FF"/>
</g>
<g filter="url(#filter14_f_4102_161)">
<path d="M705.632 740.083C626.099 710.956 532.114 532.846 565.896 470.404C599.678 407.963 774.48 430.084 854.013 459.211C893.425 473.644 1026.03 462.412 1056.03 510.654C1086.57 559.764 1034.2 597.784 1017.16 629.283C983.376 691.724 785.165 769.209 705.632 740.083Z" fill="#00A3FF"/>
</g>
<g filter="url(#filter15_f_4102_161)">
<path d="M670.365 763.912C600.774 738.427 585.381 634.202 619.163 571.761C652.945 509.32 725.827 455.134 795.419 480.619C829.904 493.249 892.36 497.564 916.509 543.663C941.092 590.591 888.327 653.273 871.286 684.772C837.504 747.213 739.957 789.398 670.365 763.912Z" fill="#00A3FF"/>
</g>
</g>
</g>
</g>
<mask id="mask5_4102_161" style="mask-type:alpha" maskUnits="userSpaceOnUse" x="485" y="342" width="504" height="592">
<path d="M794.745 342.276L988.508 460.564L812.438 933.666L485.99 745.178L794.745 342.276Z" fill="url(#paint5_linear_4102_161)"/>
</mask>
<g mask="url(#mask5_4102_161)">
<g opacity="0.58">
<mask id="mask6_4102_161" style="mask-type:alpha" maskUnits="userSpaceOnUse" x="257" y="191" width="816" height="868">
<path d="M785.213 191.283L1072.3 467.412L665.374 1058.71L257.205 887.169L785.213 191.283Z" fill="url(#paint6_linear_4102_161)"/>
</mask>
<g mask="url(#mask6_4102_161)">
<path d="M655.73 788.602C770.021 728.76 825.205 622.935 849.803 554.237L856.576 511.726L857.476 476.31L789.041 421.002L669.82 503.317L542.468 709.394L555.263 789.038C557.871 799.961 581.617 815.165 655.73 788.602Z" fill="#00A3FF"/>
<g filter="url(#filter16_f_4102_161)">
<path d="M660.816 795.01C741.411 748.157 751.364 717.526 770.163 664.184L776.936 621.673L777.836 586.257L709.401 530.949L669.182 496.271L541.83 702.347L554.624 781.992C557.233 792.914 586.702 821.573 660.816 795.01Z" fill="#00A3FF"/>
</g>
<g filter="url(#filter17_f_4102_161)">
<path d="M645.792 815.167C782.5 715.925 826.931 579.186 845.73 525.845L855.807 500.026L861.439 472.525L793.004 417.218L673.783 499.533L546.431 705.609L596.182 780.876C598.791 791.799 571.679 841.73 645.792 815.167Z" fill="#00A3FF"/>
</g>
<g filter="url(#filter18_f_4102_161)">
<path d="M638.209 817.622C789.462 684.856 843.216 563.648 862.015 510.306L872.093 484.488L877.724 456.987L819.386 361.938L660.066 529.537L445.229 752.915L498.547 835.166C501.155 846.088 564.096 844.185 638.209 817.622Z" fill="#00A3FF"/>
</g>
</g>
</g>
</g>
</g>
<defs>
<filter id="filter0_f_4102_161" x="-677.126" y="-186.209" width="1575.55" height="1309.77" filterUnits="userSpaceOnUse" color-interpolation-filters="sRGB">
<feFlood flood-opacity="0" result="BackgroundImageFix"/>
<feBlend mode="normal" in="SourceGraphic" in2="BackgroundImageFix" result="shape"/>
<feGaussianBlur stdDeviation="131.729" result="effect1_foregroundBlur_4102_161"/>
</filter>
<filter id="filter1_f_4102_161" x="-260.29" y="215.147" width="786.457" height="492.529" filterUnits="userSpaceOnUse" color-interpolation-filters="sRGB">
<feFlood flood-opacity="0" result="BackgroundImageFix"/>
<feBlend mode="normal" in="SourceGraphic" in2="BackgroundImageFix" result="shape"/>
<feGaussianBlur stdDeviation="4.36525" result="effect1_foregroundBlur_4102_161"/>
</filter>
<filter id="filter2_f_4102_161" x="-371.838" y="193.467" width="944.199" height="617.519" filterUnits="userSpaceOnUse" color-interpolation-filters="sRGB">
<feFlood flood-opacity="0" result="BackgroundImageFix"/>
<feBlend mode="normal" in="SourceGraphic" in2="BackgroundImageFix" result="shape"/>
<feGaussianBlur stdDeviation="15.2784" result="effect1_foregroundBlur_4102_161"/>
</filter>
<filter id="filter3_f_4102_161" x="-513.625" y="179.675" width="1303.72" height="812.638" filterUnits="userSpaceOnUse" color-interpolation-filters="sRGB">
<feFlood flood-opacity="0" result="BackgroundImageFix"/>
<feBlend mode="normal" in="SourceGraphic" in2="BackgroundImageFix" result="shape"/>
<feGaussianBlur stdDeviation="21.8263" result="effect1_foregroundBlur_4102_161"/>
</filter>
<filter id="filter4_f_4102_161" x="-498.76" y="162.205" width="1427.35" height="955.69" filterUnits="userSpaceOnUse" color-interpolation-filters="sRGB">
<feFlood flood-opacity="0" result="BackgroundImageFix"/>
<feBlend mode="normal" in="SourceGraphic" in2="BackgroundImageFix" result="shape"/>
<feGaussianBlur stdDeviation="58.9309" result="effect1_foregroundBlur_4102_161"/>
</filter>
<filter id="filter5_f_4102_161" x="-619.426" y="78.1807" width="1723.64" height="1239.29" filterUnits="userSpaceOnUse" color-interpolation-filters="sRGB">
<feFlood flood-opacity="0" result="BackgroundImageFix"/>
<feBlend mode="normal" in="SourceGraphic" in2="BackgroundImageFix" result="shape"/>
<feGaussianBlur stdDeviation="146.236" result="effect1_foregroundBlur_4102_161"/>
</filter>
<filter id="filter6_f_4102_161" x="-593.639" y="43.3691" width="1391.22" height="905.606" filterUnits="userSpaceOnUse" color-interpolation-filters="sRGB">
<feFlood flood-opacity="0" result="BackgroundImageFix"/>
<feBlend mode="normal" in="SourceGraphic" in2="BackgroundImageFix" result="shape"/>
<feGaussianBlur stdDeviation="67.6614" result="effect1_foregroundBlur_4102_161"/>
</filter>
<filter id="filter7_f_4102_161" x="625.031" y="526.315" width="275.332" height="266.212" filterUnits="userSpaceOnUse" color-interpolation-filters="sRGB">
<feFlood flood-opacity="0" result="BackgroundImageFix"/>
<feBlend mode="normal" in="SourceGraphic" in2="BackgroundImageFix" result="shape"/>
<feGaussianBlur stdDeviation="0.773917" result="effect1_foregroundBlur_4102_161"/>
</filter>
<filter id="filter8_f_4102_161" x="611.319" y="522.873" width="308.374" height="272.763" filterUnits="userSpaceOnUse" color-interpolation-filters="sRGB">
<feFlood flood-opacity="0" result="BackgroundImageFix"/>
<feBlend mode="normal" in="SourceGraphic" in2="BackgroundImageFix" result="shape"/>
<feGaussianBlur stdDeviation="2.70871" result="effect1_foregroundBlur_4102_161"/>
</filter>
<filter id="filter9_f_4102_161" x="603.917" y="466.25" width="354.126" height="307.431" filterUnits="userSpaceOnUse" color-interpolation-filters="sRGB">
<feFlood flood-opacity="0" result="BackgroundImageFix"/>
<feBlend mode="normal" in="SourceGraphic" in2="BackgroundImageFix" result="shape"/>
<feGaussianBlur stdDeviation="3.86958" result="effect1_foregroundBlur_4102_161"/>
</filter>
<filter id="filter10_f_4102_161" x="543.823" y="460.494" width="506.075" height="343.505" filterUnits="userSpaceOnUse" color-interpolation-filters="sRGB">
<feFlood flood-opacity="0" result="BackgroundImageFix"/>
<feBlend mode="normal" in="SourceGraphic" in2="BackgroundImageFix" result="shape"/>
<feGaussianBlur stdDeviation="10.4479" result="effect1_foregroundBlur_4102_161"/>
</filter>
<filter id="filter11_f_4102_161" x="509.976" y="368.233" width="614.083" height="436.819" filterUnits="userSpaceOnUse" color-interpolation-filters="sRGB">
<feFlood flood-opacity="0" result="BackgroundImageFix"/>
<feBlend mode="normal" in="SourceGraphic" in2="BackgroundImageFix" result="shape"/>
<feGaussianBlur stdDeviation="29.3239" result="effect1_foregroundBlur_4102_161"/>
</filter>
<filter id="filter12_f_4102_161" x="509.976" y="368.233" width="614.083" height="436.819" filterUnits="userSpaceOnUse" color-interpolation-filters="sRGB">
<feFlood flood-opacity="0" result="BackgroundImageFix"/>
<feBlend mode="normal" in="SourceGraphic" in2="BackgroundImageFix" result="shape"/>
<feGaussianBlur stdDeviation="29.3239" result="effect1_foregroundBlur_4102_161"/>
</filter>
<filter id="filter13_f_4102_161" x="509.976" y="368.233" width="614.083" height="436.819" filterUnits="userSpaceOnUse" color-interpolation-filters="sRGB">
<feFlood flood-opacity="0" result="BackgroundImageFix"/>
<feBlend mode="normal" in="SourceGraphic" in2="BackgroundImageFix" result="shape"/>
<feGaussianBlur stdDeviation="29.3239" result="effect1_foregroundBlur_4102_161"/>
</filter>
<filter id="filter14_f_4102_161" x="500.177" y="371.702" width="623.881" height="433.35" filterUnits="userSpaceOnUse" color-interpolation-filters="sRGB">
<feFlood flood-opacity="0" result="BackgroundImageFix"/>
<feBlend mode="normal" in="SourceGraphic" in2="BackgroundImageFix" result="shape"/>
<feGaussianBlur stdDeviation="29.3239" result="effect1_foregroundBlur_4102_161"/>
</filter>
<filter id="filter15_f_4102_161" x="577.965" y="450.185" width="368.954" height="345.27" filterUnits="userSpaceOnUse" color-interpolation-filters="sRGB">
<feFlood flood-opacity="0" result="BackgroundImageFix"/>
<feBlend mode="normal" in="SourceGraphic" in2="BackgroundImageFix" result="shape"/>
<feGaussianBlur stdDeviation="11.9957" result="effect1_foregroundBlur_4102_161"/>
</filter>
<filter id="filter16_f_4102_161" x="515.771" y="470.212" width="288.123" height="361.823" filterUnits="userSpaceOnUse" color-interpolation-filters="sRGB">
<feFlood flood-opacity="0" result="BackgroundImageFix"/>
<feBlend mode="normal" in="SourceGraphic" in2="BackgroundImageFix" result="shape"/>
<feGaussianBlur stdDeviation="13.0291" result="effect1_foregroundBlur_4102_161"/>
</filter>
<filter id="filter17_f_4102_161" x="520.372" y="391.159" width="367.125" height="457.753" filterUnits="userSpaceOnUse" color-interpolation-filters="sRGB">
<feFlood flood-opacity="0" result="BackgroundImageFix"/>
<feBlend mode="normal" in="SourceGraphic" in2="BackgroundImageFix" result="shape"/>
<feGaussianBlur stdDeviation="13.0291" result="effect1_foregroundBlur_4102_161"/>
</filter>
<filter id="filter18_f_4102_161" x="371.223" y="287.933" width="580.506" height="627.497" filterUnits="userSpaceOnUse" color-interpolation-filters="sRGB">
<feFlood flood-opacity="0" result="BackgroundImageFix"/>
<feBlend mode="normal" in="SourceGraphic" in2="BackgroundImageFix" result="shape"/>
<feGaussianBlur stdDeviation="37.0026" result="effect1_foregroundBlur_4102_161"/>
</filter>
<linearGradient id="paint0_linear_4102_161" x1="724.679" y1="899.374" x2="-439.492" y2="126.301" gradientUnits="userSpaceOnUse">
<stop stop-color="#C4C4C4" stop-opacity="0"/>
<stop offset="0.261523" stop-color="#C4C4C4"/>
<stop offset="0.554366" stop-color="#C4C4C4"/>
<stop offset="1" stop-color="#C4C4C4" stop-opacity="0"/>
</linearGradient>
<linearGradient id="paint1_linear_4102_161" x1="231.324" y1="246.504" x2="-2.42721" y2="706.566" gradientUnits="userSpaceOnUse">
<stop stop-color="#C4C4C4"/>
<stop offset="1" stop-color="#C4C4C4" stop-opacity="0"/>
</linearGradient>
<linearGradient id="paint2_linear_4102_161" x1="-383.97" y1="363.334" x2="416.588" y2="995.316" gradientUnits="userSpaceOnUse">
<stop offset="0.5625" stop-color="#491CFF"/>
<stop offset="1" stop-color="#0038FF"/>
</linearGradient>
<linearGradient id="paint3_linear_4102_161" x1="1034.65" y1="662.187" x2="589.342" y2="393.838" gradientUnits="userSpaceOnUse">
<stop stop-color="#C4C4C4" stop-opacity="0"/>
<stop offset="0.430547" stop-color="#C4C4C4"/>
<stop offset="0.498519" stop-color="#C4C4C4"/>
<stop offset="1" stop-color="#C4C4C4" stop-opacity="0"/>
</linearGradient>
<linearGradient id="paint4_linear_4102_161" x1="666.475" y1="843.789" x2="767.043" y2="455.829" gradientUnits="userSpaceOnUse">
<stop stop-color="#C4C4C4"/>
<stop offset="1" stop-color="#C4C4C4" stop-opacity="0"/>
</linearGradient>
<linearGradient id="paint5_linear_4102_161" x1="612.192" y1="782.365" x2="742.452" y2="446.781" gradientUnits="userSpaceOnUse">
<stop stop-color="#C4C4C4" stop-opacity="0"/>
<stop offset="0.11282" stop-color="#C4C4C4"/>
<stop offset="0.284305" stop-color="#C4C4C4"/>
<stop offset="1" stop-color="#C4C4C4" stop-opacity="0"/>
</linearGradient>
<linearGradient id="paint6_linear_4102_161" x1="803.083" y1="682.796" x2="721.686" y2="615.604" gradientUnits="userSpaceOnUse">
<stop offset="0.155373" stop-color="#C4C4C4"/>
<stop offset="1" stop-color="#C4C4C4" stop-opacity="0"/>
</linearGradient>
</defs>
</svg>
